<?xml version="1.0" encoding="utf-8"?>

<!DOCTYPE svg PUBLIC "-//W3C//DTD SVG 1.0//EN" "http://www.w3.org/TR/2001/REC-SVG-20010904/DTD/svg10.dtd">
<!-- Uploaded to: SVG Repo, www.svgrepo.com, Generator: SVG Repo Mixer Tools -->
<svg version="1.0" id="Layer_1" xmlns="http://www.w3.org/2000/svg" xmlns:xlink="http://www.w3.org/1999/xlink" 
	 width="800px" height="800px" viewBox="0 0 64 64" enable-background="new 0 0 64 64" xml:space="preserve">
<g>
	<path fill="#231F20" d="M63.652,14.49c-0.277-1.584-1.283-1.544-2.209-0.618s-9.787,9.786-9.787,9.786
		c-3.123,3.123-8.189,3.123-11.312-0.001c-3.125-3.124-3.125-8.188,0-11.313c0,0,8.963-8.963,9.787-9.786
		c0.822-0.823,0.9-1.901-0.621-2.21C48.375,0.117,47.201,0,46,0c-9.941,0-18,8.06-18,18s8.059,18,18,18s18-8.06,18-18
		C64,16.799,63.852,15.631,63.652,14.49z"/>
	<path fill="#231F20" d="M2.342,50.344c-3.123,3.123-3.123,8.189,0.001,11.313s8.19,3.124,11.313,0.001l7.794-7.794L10.136,42.55
		L2.342,50.344z M8,59c-1.656,0-3-1.344-3-3s1.344-3,3-3s3,1.344,3,3S9.657,59,8,59z"/>
	<path fill="#231F20" d="M27.393,25.293L11.55,41.136L22.865,52.45l15.842-15.843C33.535,34.578,29.422,30.466,27.393,25.293z"/>
</g>
</svg>